<svg version="1.2" xmlns="http://www.w3.org/2000/svg" viewBox="0 0 512 332" width="512" height="332">
	<title>card_logo-svg</title>
	<style>
		.s0 { fill: #ededed } 
		.s1 { fill: #d8d8da } 
		.s2 { fill: #88888f } 
		.s3 { fill: #797781 } 
		.s4 { fill: #e07188 } 
		.s5 { fill: #f8e99b } 
	</style>
	<path class="s0" d="m473.6 332.4h-435.2c-21.1 0-38.4-17.3-38.4-38.4v-256c0-21.1 17.3-38.4 38.4-38.4h435.2c21.1 0 38.4 17.3 38.4 38.4v256c0 21.1-17.3 38.4-38.4 38.4z"/>
	<path class="s1" d="m473.6-0.4h-64c21.1 0 38.4 17.3 38.4 38.4v256c0 21.1-17.3 38.4-38.4 38.4h64c21.1 0 38.4-17.3 38.4-38.4v-256c0-21.1-17.3-38.4-38.4-38.4z"/>
	<path class="s2" d="m0 76.4h512v76.8h-512z"/>
	<path class="s3" d="m448 76.4h64v76.8h-64z"/>
	<path class="s4" d="m89.6 281.2c-21.2 0-38.4-17.2-38.4-38.4 0-21.2 17.2-38.4 38.4-38.4 21.2 0 38.4 17.2 38.4 38.4 0 21.2-17.2 38.4-38.4 38.4z"/>
	<path class="s5" d="m140.8 281.2c-21.2 0-38.4-17.2-38.4-38.4 0-21.2 17.2-38.4 38.4-38.4 21.2 0 38.4 17.2 38.4 38.4 0 21.2-17.2 38.4-38.4 38.4z"/>
	<g>
		<path class="s2" d="m438.4 226.8h-204.8c-5.3 0-9.6-4.3-9.6-9.6 0-5.3 4.3-9.6 9.6-9.6h204.8c5.3 0 9.6 4.3 9.6 9.6 0 5.3-4.3 9.6-9.6 9.6z"/>
		<path class="s2" d="m412.8 265.2h-179.2c-5.3 0-9.6-4.3-9.6-9.6 0-5.3 4.3-9.6 9.6-9.6h179.2c5.3 0 9.6 4.3 9.6 9.6 0 5.3-4.3 9.6-9.6 9.6z"/>
	</g>
</svg>